<?xml version="1.0" encoding="utf-8"?>
<!-- Generator: Adobe Illustrator 27.4.0, SVG Export Plug-In . SVG Version: 6.00 Build 0)  -->
<svg version="1.1" id="Layer_1" xmlns="http://www.w3.org/2000/svg" xmlns:xlink="http://www.w3.org/1999/xlink" x="0px" y="0px"
	 viewBox="0 0 50 50" style="enable-background:new 0 0 50 50;" xml:space="preserve">
<style type="text/css">
	.st0{fill:#2D6DB0;}
</style>
<path class="st0" d="M6.97,13.23l-1.83-0.18c0-0.18,0.03-0.3,0.03-0.46h4.55l8.24,15.46l8.1-15.46h4.55c0,0.15,0.07,0.27,0.03,0.46
	l-1.83,0.18c-0.24,0.03-0.38,0.21-0.41,0.4v19.73l2.55,0.12c0,0.03-0.03,0.43-0.03,0.46L24,33.97c0-0.15,0.03-0.27,0.03-0.43
	l1.79-0.21c0.24-0.03,0.38-0.21,0.41-0.37V13.69l-7.86,15.03l-0.69,1.22H16.9L8.17,13.66V33.3l3.93,0.18c0,0.03-0.03,0.43-0.03,0.46
	l-6.93,0.03c0-0.15,0.03-0.27,0.03-0.43l1.79-0.21c0.28-0.03,0.38-0.24,0.41-0.4v-19.3C7.35,13.45,7.21,13.26,6.97,13.23z
	 M26.06,12.62l4.87-0.02c0,0.06,0.03,0.43,0.03,0.46l-2.55,0.21v9.79h11.75v-9.39c-0.03-0.18-0.17-0.4-0.41-0.43l-1.79-0.15
	c-0.03-0.18-0.03-0.3-0.03-0.46l6.55-0.03c0,0.06,0.03,0.43,0.03,0.46l-2.17,0.21v20.09l2.52,0.12c0,0.03-0.03,0.43-0.03,0.46
	l-6.89,0.03c0-0.15,0-0.27,0.03-0.43l1.79-0.21c0.24-0.03,0.38-0.24,0.41-0.4v-9.27H28.42v9.7l2.55,0.12c0,0.03-0.03,0.43-0.03,0.46
	L24,33.97c0-0.15,0.03-0.27,0.03-0.43l1.79-0.21c0.24-0.03,0.38-0.21,0.41-0.37V13.63c-0.03-0.18-0.17-0.37-0.41-0.4L26.06,12.62z
	 M36.71,52.07H13.29v0.16h23.41V52.07z M37.05,52.15c0-0.17-0.15-0.31-0.35-0.31s-0.35,0.14-0.35,0.31c0,0.17,0.15,0.31,0.35,0.31
	S37.05,52.32,37.05,52.15z M13.64,52.15c0-0.17-0.15-0.31-0.35-0.31c-0.19,0-0.35,0.14-0.35,0.31c0,0.17,0.15,0.31,0.35,0.31
	C13.49,52.45,13.64,52.32,13.64,52.15z M32.2,54.74H17.8v0.16H32.2V54.74z M32.55,54.82c0-0.17-0.15-0.31-0.35-0.31
	s-0.35,0.14-0.35,0.31c0,0.17,0.15,0.31,0.35,0.31S32.55,54.99,32.55,54.82z M18.14,54.82c0-0.17-0.15-0.31-0.35-0.31
	s-0.35,0.14-0.35,0.31c0,0.17,0.15,0.31,0.35,0.31S18.14,54.99,18.14,54.82z"/>
</svg>
